#!OML:ASF H:\Pregnant\Project 1\Capture day 1\Session 1\femalepreg.ASF
:FULLY-SPECIFIED
:DEGREES
1026
root 7.5379 15.3145 24.3489 17.5363 -410.351 -359.412
lowerback -13.0464 -1.31601 -9.75673
upperback -6.77168 -0.815667 -0.945398
thorax 0.219972 -0.26808 4.38951
lowerneck -21.4451 -7.88263 -6.92431
upperneck 21.3525 -10.685 7.03088
head 11.2447 -4.60173 1.94326
rclavicle -8.19987e-015 4.77083e-015
rhumerus -33.4337 10.0895 -87.2221
rradius 27.6776
rwrist 0.526317
rhand -13.4692 -13.6174
rfingers 7.12502
rthumb 12.6409 -43.2149
lclavicle -8.19987e-015 4.77083e-015
lhumerus -44.3914 -0.700864 70.4876
lradius 31.2632
lwrist 39.0601
lhand -30.607 1.30451
lfingers 7.12502
lthumb -3.90359 31.2485
rfemur -46.2484 16.4744 17.3246
rtibia 43.2881
rfoot -10.4639 -14.8757
rtoes -0.877463
lfemur -18.7161 -16.1814 -21.5424
ltibia 17.4191
lfoot -15.8106 -2.30695
ltoes -7.18939
1027
root 7.49388 15.3097 24.38 17.6302 -410.734 -359.509
lowerback -13.2854 -1.23 -9.40819
upperback -6.84923 -0.724227 -0.886014
thorax 0.255591 -0.230719 4.26775
lowerneck -21.4836 -7.72058 -6.74205
upperneck 21.4467 -10.4802 6.87312
head 11.2497 -4.51151 1.89218
rclavicle -8.83101e-014 -2.06736e-014
rhumerus -33.1817 10.3258 -87.408
rradius 28.146
rwrist 0.40865
rhand -13.4823 -13.4974
rfingers 7.12502
rthumb 12.6282 -43.0957
lclavicle -8.83101e-014 -2.06736e-014
lhumerus -44.9463 -0.316071 70.3037
lradius 31.3073
lwrist 39.486
lhand -30.7299 1.36736
lfingers 7.12502
lthumb -4.02233 31.3091
rfemur -46.1285 16.6855 17.4225
rtibia 43.3229
rfoot -10.6408 -14.7063
rtoes -1.19205
lfemur -18.396 -16.28 -21.5549
ltibia 17.3556
lfoot -15.9016 -1.82015
ltoes -7.20088
1028
root 7.45002 15.3048 24.4117 17.7259 -411.127 -359.597
lowerback -13.5453 -1.13834 -9.05135
upperback -6.91687 -0.625078 -0.829221
thorax 0.312558 -0.191012 4.13975
lowerneck -21.4997 -7.56353 -6.56639
upperneck 21.5038 -10.2804 6.72362
head 11.2388 -4.42428 1.84477
rclavicle 5.65294e-014 3.33958e-014
rhumerus -32.9337 10.5622 -87.5891
rradius 28.6779
rwrist 0.224136
rhand -13.5125 -13.3957
rfingers 7.12502
rthumb 12.5992 -42.9957
lclavicle 5.65294e-014 3.33958e-014
lhumerus -45.4881 0.00185008 70.1838
lradius 31.3343
lwrist 39.9233
lhand -30.9029 1.38295
lfingers 7.12502
lthumb -4.18942 31.3215
rfemur -46.0199 16.8923 17.5156
rtibia 43.3677
rfoot -10.8294 -14.5403
rtoes -1.44905
lfemur -18.0702 -16.3932 -21.5789
ltibia 17.2692
lfoot -15.9716 -1.30798
ltoes -7.28695
1029
root 7.40603 15.2999 24.444 17.8166 -411.518 -359.669
lowerback -13.8136 -1.05903 -8.70902
upperback -6.9839 -0.541973 -0.759493
thorax 0.377198 -0.159141 4.03159
lowerneck -21.4953 -7.39719 -6.39087
upperneck 21.5443 -10.0622 6.55642
head 11.216 -4.3317 1.79462
rclavicle -4.73604e-014 1.11319e-014
rhumerus -32.7066 10.83 -87.7678
rradius 29.2628
rwrist -0.0265566
rhand -13.5778 -13.3037
rfingers 7.12502
rthumb 12.5361 -42.9076
lclavicle -4.73604e-014 1.11319e-014
lhumerus -46.0467 0.287083 70.1305
lradius 31.3449
lwrist 40.3554
lhand -31.1334 1.33886
lfingers 7.12502
lthumb -4.41198 31.2729
rfemur -45.9193 17.0975 17.5982
rtibia 43.4218
rfoot -11.0248 -14.3943
rtoes -1.6681
lfemur -17.7385 -16.523 -21.6151
ltibia 17.1564
lfoot -16.0175 -0.784847
ltoes -7.4227
1030
root 7.36158 15.295 24.4764 17.9018 -411.891 -359.731
lowerback -14.0896 -0.990591 -8.37128
upperback -7.04287 -0.473417 -0.685869
thorax 0.456742 -0.135109 3.92829
lowerneck -21.4919 -7.22632 -6.19572
upperneck 21.5813 -9.83585 6.36091
head 11.1895 -4.23726 1.73224
rclavicle 6.9351e-014 -1.59028e-014
rhumerus -32.4924 11.1041 -87.9491
rradius 29.8997
rwrist -0.332942
rhand -13.6636 -13.2251
rfingers 7.12502
rthumb 12.4534 -42.8341
lclavicle 6.9351e-014 -1.59028e-014
lhumerus -46.5979 0.528086 70.1328
lradius 31.3368
lwrist 40.78
lhand -31.385 1.31656
lfingers 7.12502
lthumb -4.65494 31.2454
rfemur -45.8175 17.3036 17.6748
rtibia 43.4833
rfoot -11.2269 -14.281
rtoes -1.85167
lfemur -17.3976 -16.6586 -21.6583
ltibia 17.0177
lfoot -16.0407 -0.275081
ltoes -7.63449
1031
root 7.3166 15.2901 24.509 17.9778 -412.237 -359.788
lowerback -14.3686 -0.934416 -8.03155
upperback -7.08968 -0.422214 -0.610843
thorax 0.553105 -0.120528 3.82305
lowerneck -21.4771 -7.05245 -5.9923
upperneck 21.6017 -9.60627 6.16147
head 11.1548 -4.14166 1.66775
rclavicle 1.93567e-014 1.74931e-014
rhumerus -32.2868 11.3694 -88.1341
rradius 30.5773
rwrist -0.6796
rhand -13.7801 -13.1524
rfingers 7.12502
rthumb 12.3411 -42.7682
lclavicle 1.93567e-014 1.74931e-014
lhumerus -47.1322 0.726099 70.1854
lradius 31.3071
lwrist 41.1898
lhand -31.648 1.31764
lfingers 7.12502
lthumb -4.90889 31.2408
rfemur -45.703 17.5111 17.7501
rtibia 43.5465
rfoot -11.4314 -14.2057
rtoes -2.01545
lfemur -17.0508 -16.7989 -21.7042
ltibia 16.8695
lfoot -16.0465 0.2066
ltoes -7.8806
1032
root 7.27108 15.285 24.5415 18.0524 -412.557 -359.85
lowerback -14.6479 -0.889304 -7.68475
upperback -7.126 -0.387928 -0.532229
thorax 0.662988 -0.114984 3.71524
lowerneck -21.4577 -6.8753 -5.77746
upperneck 21.621 -9.37204 5.94717
head 11.1182 -4.04493 1.59671
rclavicle -5.9536e-014 -1.35174e-014
rhumerus -32.0965 11.6359 -88.3265
rradius 31.2957
rwrist -1.06666
rhand -13.9275 -13.1084
rfingers 7.12502
rthumb 12.199 -42.7327
lclavicle -5.9536e-014 -1.35174e-014
lhumerus -47.6475 0.888209 70.2843
lradius 31.2511
lwrist 41.5637
lhand -31.8869 1.38299
lfingers 7.12502
lthumb -5.13953 31.3007
rfemur -45.5721 17.7238 17.8306
rtibia 43.6045
rfoot -11.6328 -14.1637
rtoes -2.16161
lfemur -16.713 -16.9385 -21.7455
ltibia 16.7408
lfoot -16.0465 0.66007
ltoes -8.16011
1033
root 7.22522 15.2799 24.5737 18.1416 -412.847 -359.94
lowerback -14.9261 -0.848968 -7.31092
upperback -7.14892 -0.36481 -0.453673
thorax 0.787952 -0.116068 3.59047
lowerneck -21.4313 -6.69957 -5.56302
upperneck 21.636 -9.14153 5.73873
head 11.0805 -3.94936 1.52713
rclavicle -6.97237e-014 -2.54444e-014
rhumerus -31.9192 11.8839 -88.5266
rradius 32.0515
rwrist -1.48151
rhand -14.0942 -13.0599
rfingers 7.12502
rthumb 12.0383 -42.6936
lclavicle -6.97237e-014 -2.54444e-014
lhumerus -48.1249 1.00346 70.4273
lradius 31.158
lwrist 41.8884
lhand -32.1069 1.47351
lfingers 7.12502
lthumb -5.35191 31.3859
rfemur -45.4165 17.9371 17.934
rtibia 43.6484
rfoot -11.8304 -14.1487
rtoes -2.28978
lfemur -16.4027 -17.0688 -21.7681
ltibia 16.6683
lfoot -16.0562 1.08004
ltoes -8.46161
1034
root 7.17923 15.2745 24.6053 18.263 -413.116 -360.081
lowerback -15.1954 -0.805413 -6.90068
upperback -7.16332 -0.344925 -0.372975
thorax 0.917755 -0.119403 3.44693
lowerneck -21.3804 -6.52926 -5.36279
upperneck 21.6358 -8.92171 5.55743
head 11.0366 -3.8572 1.46819
rclavicle 1.73688e-014 3.97569e-015
rhumerus -31.7616 12.117 -88.7377
rradius 32.8423
rwrist -1.92768
rhand -14.2873 -13.0077
rfingers 7.12502
rthumb 11.8521 -42.6523
lclavicle 1.73688e-014 3.97569e-015
lhumerus -48.5627 1.06938 70.6129
lradius 31.023
lwrist 42.1476
lhand -32.2826 1.58883
lfingers 7.12502
lthumb -5.5216 31.4969
rfemur -45.2353 18.1614 18.0715
rtibia 43.6702
rfoot -12.0177 -14.1519
rtoes -2.40409
lfemur -16.1393 -17.1753 -21.7617
ltibia 16.6903
lfoot -16.0916 1.47215
ltoes -8.79318
